# xmcd
#
# Track frame offsets:
#  150
#  16035
#  34217
#  50342
#  68555
#  90512
#  111157
#  130025
#  147752
#  167102
#  184607
#  204180
#  219732
#  234325
#  253147
#  275687
#
# Disc length: 3830 seconds
#
# Revision: 0
# Processed by: cddbd v1.5.1PL2 Copyright (c) Steve Scherf et al.
# Submitted via: Collectorz.com_Music_Collector 6.9
#
DISCID=d90ef410
DTITLE=Various Artist - Sony Music In-Store Play Sampler March 2004
DYEAR=2004
DGENRE=
TTITLE0=Aerosmith - Baby, Please Don't Go
TTITLE1=Cypress Hill - What's Your Number?
TTITLE2=Nas - On The Real
TTITLE3=Lil' Flip - Game Over (Flip)
TTITLE4=B2K and P. Diddy - Bump, Bump, Bump
TTITLE5=Dead Prez and Jay-Z - Hell Yeah (Pimp The System)
TTITLE6=DJ Kayslav feat. Fat Joe, Joe Budden and Joe - Not Your Average Joe
TTITLE7=Nappy Roots - Trouble Of This World (Coming Home)
TTITLE8=Shakira - Poem To A Horse
TTITLE9=Los Lonely Boys - Heaven
TTITLE10=Robi Draco Rosa - Como Me Acuerdo
TTITLE11=Bob Dylan - If You Gotta Go, Go Now (Or Else You Got To Stay All Night)
TTITLE12=Paul Simon - The Sound Of Silence
TTITLE13=Peter White - Talkin' Bout Love
TTITLE14=Lashell Griffin - Free
TTITLE15=Yo-Yo Ma - Laudamus Te From Gloria, RV
EXTD=
EXTT0=
EXTT1=
EXTT2=
EXTT3=
EXTT4=
EXTT5=
EXTT6=
EXTT7=
EXTT8=
EXTT9=
EXTT10=
EXTT11=
EXTT12=
EXTT13=
EXTT14=
EXTT15=
PLAYORDER=
